<?xml version="1.0" encoding="UTF-8" standalone="no"?>
<!-- Generator: Adobe Illustrator 12.0.0, SVG Export Plug-In . SVG Version: 6.00 Build 51448)  -->
<svg
   xmlns:dc="http://purl.org/dc/elements/1.1/"
   xmlns:cc="http://web.resource.org/cc/"
   xmlns:rdf="http://www.w3.org/1999/02/22-rdf-syntax-ns#"
   xmlns:svg="http://www.w3.org/2000/svg"
   xmlns="http://www.w3.org/2000/svg"
   xmlns:xlink="http://www.w3.org/1999/xlink"
   xmlns:sodipodi="http://sodipodi.sourceforge.net/DTD/sodipodi-0.dtd"
   xmlns:inkscape="http://www.inkscape.org/namespaces/inkscape"
   version="1.0"
   baseProfile="basic"
   id="Layer_1"
   width="120.28161"
   height="102.1747"
   viewBox="0 0 118 109"
   overflow="visible"
   enable-background="new 0 0 118 109"
   xml:space="preserve"
   sodipodi:version="0.32"
   inkscape:version="0.44.1"
   sodipodi:docname="Duke_text_logo.svg"
   sodipodi:docbase="C:\"><metadata
   id="metadata34"><rdf:RDF><cc:Work
       rdf:about=""><dc:format>image/svg+xml</dc:format><dc:type
         rdf:resource="http://purl.org/dc/dcmitype/StillImage" /></cc:Work></rdf:RDF></metadata><defs
   id="defs32" /><sodipodi:namedview
   inkscape:window-height="573"
   inkscape:window-width="853"
   inkscape:pageshadow="2"
   inkscape:pageopacity="0.0"
   guidetolerance="10.0"
   gridtolerance="10.0"
   objecttolerance="10.0"
   borderopacity="1.0"
   bordercolor="#666666"
   pagecolor="#ffffff"
   id="base"
   inkscape:zoom="3.4587156"
   inkscape:cx="59"
   inkscape:cy="52.499383"
   inkscape:window-x="68"
   inkscape:window-y="56"
   inkscape:current-layer="g3" />
<g
   id="g3"
   transform="matrix(1.24682, 0, 0, 1.24682, -14.2401, -13.5416)">
	<g
   id="g5">
		<defs
   id="defs7">
			<rect
   id="XMLID_1_"
   x="6.375"
   y="9.6239996"
   width="104.625"
   height="88.875" />
		</defs>
		<clipPath
   id="XMLID_5_">
			<use
   xlink:href="#XMLID_1_"
   id="use11"
   x="0"
   y="0"
   width="118"
   height="109" />
		</clipPath>
		<rect
   x="0.5"
   y="0.5"
   clip-path="url(#XMLID_5_)"
   width="117"
   height="108"
   id="rect13"
   style="fill: none; stroke: rgb(34, 31, 32);" />
	</g>
	<path
   d="M 102.853,30.471 C 102.853,20.508 95.163,12.507 85.673,12.507 L 60.973,12.507 L 72.764,31.969 L 72.764,76.973 L 60.973,96.493 L 85.673,96.493 C 95.162,96.471 102.853,88.861 102.853,78.898 L 102.853,30.471 L 102.853,30.471 z "
   id="path15"
   style="fill:#001a57;fill-opacity:1" />
	<polygon
   points="58.376,12.51 8.455,12.51 20.258,31.969 20.258,76.973 8.455,96.482 58.376,96.482 46.57,76.973 46.57,31.969 58.376,12.51"
   id="polygon17"
   style="fill:#001a57;fill-opacity:1" />
	<path
   d="M 106.199,95.775 C 104.746,95.775 103.569,94.597 103.569,93.145 C 103.569,91.693 104.746,90.514 106.199,90.514 C 107.652,90.514 108.829,91.693 108.829,93.145 C 108.829,94.597 107.652,95.775 106.199,95.775 M 106.199,89.798 C 104.35,89.798 102.851,91.296 102.851,93.146 C 102.851,94.995 104.35,96.494 106.199,96.494 C 108.047,96.494 109.546,94.995 109.546,93.146 C 109.546,91.296 108.047,89.798 106.199,89.798"
   id="path19"
   style="fill:#001a57;fill-opacity:1" />
	<g
   id="g21">
		<defs
   id="defs23">
			<rect
   id="XMLID_3_"
   x="6.375"
   y="9.6239996"
   width="104.625"
   height="88.875" />
		</defs>
		<clipPath
   id="XMLID_6_">
			<use
   xlink:href="#XMLID_3_"
   id="use27"
   x="0"
   y="0"
   width="118"
   height="109" />
		</clipPath>
		<path
   clip-path="url(#XMLID_6_)"
   d="M 106.438,92.787 L 105.542,92.787 L 105.542,91.951 L 106.438,91.951 C 106.67,91.951 106.856,92.139 106.856,92.369 C 106.855,92.599 106.67,92.787 106.438,92.787 M 107.574,92.369 C 107.574,91.742 107.065,91.234 106.437,91.234 L 104.824,91.233 L 104.824,95.057 L 105.542,95.057 L 105.542,93.503 L 106.058,93.503 L 106.783,95.057 L 107.576,95.057 L 106.82,93.439 C 107.258,93.282 107.574,92.863 107.574,92.369"
   id="path29"
   style="fill:#001a57;fill-opacity:1" />
	</g>
</g>
</svg>